<?xml version="1.0" standalone="no"?>
<!DOCTYPE svg PUBLIC "-//W3C//DTD SVG 20010904//EN"
 "http://www.w3.org/TR/2001/REC-SVG-20010904/DTD/svg10.dtd">
<svg version="1.0" xmlns="http://www.w3.org/2000/svg"
 width="468.000000pt" height="468.000000pt" viewBox="0 0 468.000000 468.000000"
 preserveAspectRatio="xMidYMid meet">
<metadata>
Created by potrace 1.14, written by Peter Selinger 2001-2017
</metadata>
<g transform="translate(0.000000,468.000000) scale(0.100000,-0.100000)"
fill="#000000" stroke="none">
<path d="M2190 4453 c-145 -11 -461 -74 -502 -99 -6 -4 38 -55 97 -114 72 -72
105 -112 100 -120 -5 -8 -4 -11 3 -6 17 11 163 -181 273 -359 23 -38 73 -130
110 -204 l67 -133 77 151 c131 259 297 493 487 683 l97 98 -82 24 c-83 26
-162 45 -207 51 -14 2 -59 9 -100 15 -77 11 -340 20 -420 13z"/>
<path d="M3032 4195 c-60 -57 -135 -135 -166 -174 -32 -39 -63 -68 -69 -64 -6
3 -7 1 -3 -5 8 -13 -82 -138 -96 -134 -5 1 -7 -2 -3 -7 8 -14 -25 -62 -38 -54
-5 3 -7 1 -4 -5 4 -5 -13 -45 -38 -87 -52 -87 -131 -243 -166 -325 -12 -30
-27 -58 -32 -61 -20 -14 20 -21 171 -29 86 -5 184 -12 218 -16 l60 -6 39 49
c104 129 199 232 208 226 5 -3 7 -2 4 4 -8 13 37 56 48 46 4 -5 5 -3 2 3 -5 9
53 74 66 74 2 0 28 23 58 52 91 88 358 278 389 278 8 0 -5 14 -28 31 -23 17
-39 35 -36 40 3 5 1 8 -4 7 -5 -2 -58 29 -118 68 -112 74 -197 121 -296 166
l-57 26 -109 -103z"/>
<path d="M1478 4279 c-2 -4 -37 -23 -78 -44 -40 -20 -110 -60 -155 -87 -83
-52 -244 -169 -245 -178 0 -3 22 -19 49 -35 28 -16 47 -33 44 -38 -3 -6 -2 -7
4 -4 13 8 105 -57 96 -68 -5 -4 -3 -5 3 -2 13 7 140 -91 136 -105 -1 -5 2 -7
8 -3 16 10 335 -309 325 -325 -5 -8 -4 -11 3 -6 6 4 37 -27 74 -73 l63 -80 95
2 c52 1 97 5 100 9 3 3 61 8 130 10 147 4 141 -6 75 136 -24 50 -41 92 -37 92
4 0 2 4 -4 8 -6 4 -26 36 -44 72 -75 149 -200 331 -344 499 -45 52 -80 99 -78
105 2 6 0 8 -4 4 -4 -4 -40 21 -79 57 -60 53 -78 64 -104 62 -17 -1 -32 -5
-33 -8z"/>
<path d="M850 3835 c-18 -19 -38 -31 -43 -28 -6 4 -7 1 -2 -6 4 -8 -7 -28 -32
-54 -59 -62 -113 -132 -173 -222 -29 -44 -58 -83 -63 -86 -5 -3 -8 -9 -7 -13
1 -4 -21 -50 -48 -104 -47 -91 -112 -243 -112 -261 0 -4 57 -9 126 -9 69 -1
173 -9 232 -18 l107 -16 120 36 c197 58 466 120 620 141 84 12 84 13 1 110
-41 48 -72 93 -69 98 3 6 1 7 -4 4 -12 -7 -46 26 -38 36 3 4 2 5 -1 2 -4 -2
-36 23 -72 56 -35 33 -105 94 -156 136 -50 41 -101 84 -114 94 -12 10 -26 19
-31 19 -5 0 -14 6 -20 14 -13 16 -164 106 -178 106 -5 0 -24 -16 -43 -35z"/>
<path d="M3733 3846 c-85 -49 -223 -148 -325 -236 -58 -49 -109 -86 -113 -82
-5 4 -5 2 -2 -4 3 -6 -23 -39 -59 -75 -36 -35 -99 -103 -140 -151 -69 -81 -73
-88 -52 -92 13 -3 66 -12 118 -21 162 -27 328 -65 510 -117 173 -50 176 -50
242 -38 90 16 284 28 347 22 28 -2 51 -2 51 1 0 4 -14 41 -31 84 -50 125 -126
270 -201 383 -39 58 -71 110 -71 117 0 7 -4 10 -7 8 -4 -3 -24 17 -44 43 -42
53 -165 182 -175 182 -3 0 -25 -11 -48 -24z"/>
<path d="M2075 3120 c-60 -4 -124 -8 -141 -9 -19 0 -34 -7 -38 -17 -3 -8 -2
-13 3 -9 13 7 164 -233 155 -247 -4 -6 -3 -8 3 -5 13 8 26 -20 16 -36 -3 -7
-2 -9 2 -4 5 4 16 -5 26 -19 l17 -27 11 38 c6 21 16 62 22 91 7 29 16 51 20
48 5 -3 6 1 3 9 -2 7 7 49 20 93 31 94 31 105 9 102 -10 -1 -67 -5 -128 -8z"/>
<path d="M2455 3112 c22 -56 75 -258 70 -269 -2 -8 -1 -11 4 -8 6 3 13 -15 16
-40 8 -52 17 -56 34 -17 29 62 124 212 132 206 5 -3 7 1 4 8 -3 7 13 37 35 65
22 29 36 52 32 51 -4 -1 -47 2 -97 5 -238 18 -238 18 -230 -1z"/>
<path d="M1505 3054 c-71 -14 -178 -36 -237 -50 -59 -14 -113 -22 -119 -18 -7
4 -9 3 -6 -4 5 -6 -8 -13 -33 -17 -22 -4 -40 -10 -40 -15 0 -4 21 -15 48 -25
80 -30 163 -75 157 -85 -3 -6 1 -7 9 -4 18 7 196 -108 256 -165 22 -21 40 -36
40 -33 0 3 13 -7 28 -22 l29 -27 7 163 c3 90 9 200 13 246 5 67 3 82 -8 81 -8
0 -72 -12 -144 -25z"/>
<path d="M3015 3038 c5 -24 11 -135 14 -247 l6 -204 65 57 c36 31 109 86 162
122 96 64 309 174 337 174 25 0 -2 20 -35 26 -16 3 -31 9 -32 15 -2 5 -7 7
-12 4 -4 -3 -55 6 -112 19 -89 21 -227 48 -361 71 l-39 6 7 -43z"/>
<path d="M2311 2968 c-12 -40 -28 -94 -36 -120 -8 -26 -15 -56 -15 -67 0 -12
-5 -21 -11 -21 -5 0 -8 -4 -5 -9 6 -9 -35 -222 -44 -231 -3 -3 -6 -21 -6 -40
-1 -19 -10 -96 -19 -170 -13 -98 -19 -220 -21 -444 -1 -170 0 -314 2 -320 3
-8 59 -10 182 -9 l177 1 9 154 c15 270 -13 628 -74 933 -30 154 -95 394 -109
408 -5 5 -18 -24 -30 -65z"/>
<path d="M1784 3005 c-5 -17 -8 -149 -9 -295 l0 -266 51 -69 c75 -102 155
-237 149 -253 -2 -7 -1 -11 3 -8 5 3 17 -12 27 -32 l19 -37 13 155 c7 85 20
196 28 245 l15 90 -30 60 c-44 91 -144 267 -190 336 -22 33 -37 66 -33 72 3 7
3 9 -2 5 -4 -4 -14 0 -21 10 -11 15 -13 14 -20 -13z"/>
<path d="M2809 2918 c-40 -62 -103 -170 -139 -241 -37 -70 -69 -125 -71 -122
-3 2 3 -46 12 -108 9 -62 20 -150 23 -197 4 -47 9 -106 12 -132 5 -32 2 -53
-6 -63 -11 -13 -10 -14 2 -10 8 3 27 31 43 63 46 93 95 172 158 256 l59 78 -1
242 c-1 239 -5 333 -14 342 -2 3 -37 -46 -78 -108z"/>
<path d="M315 2875 c-25 -89 -45 -215 -57 -361 -19 -243 14 -523 91 -774 31
-100 33 -102 59 -97 15 2 81 14 147 26 123 22 366 31 465 16 142 -20 184 -28
272 -52 59 -15 95 -30 91 -36 -3 -6 -1 -7 5 -3 12 7 111 -28 190 -68 29 -14
52 -24 52 -21 0 10 -101 284 -139 378 -22 53 -37 97 -33 97 4 0 3 4 -3 8 -13
9 -90 169 -84 174 2 3 -4 12 -14 22 -9 10 -15 21 -12 26 3 5 2 10 -3 12 -4 1
-31 44 -59 93 -68 121 -128 214 -201 308 -73 95 -192 219 -235 245 -47 29
-151 44 -345 51 l-173 6 -14 -50z"/>
<path d="M4167 2924 c-1 -1 -38 -4 -83 -7 -107 -8 -213 -26 -248 -44 -42 -22
-176 -162 -256 -268 -96 -127 -200 -302 -285 -477 -40 -81 -75 -145 -80 -140
-5 4 -5 2 -1 -5 3 -6 -17 -69 -45 -140 -56 -140 -121 -325 -116 -330 2 -2 37
12 79 31 158 74 379 131 545 142 48 3 102 7 119 8 89 9 444 -34 444 -54 0 -15
46 -4 56 15 15 26 69 213 84 290 6 33 14 67 17 75 25 65 24 630 0 700 -3 8
-11 40 -17 70 -6 30 -15 72 -21 92 l-9 37 -91 3 c-50 2 -91 2 -92 2z"/>
<path d="M1141 2761 c8 -10 39 -51 70 -92 102 -135 275 -431 264 -450 -4 -5
-2 -9 3 -9 21 0 149 -299 237 -555 l63 -180 44 0 c23 0 46 4 49 8 3 4 21 9 40
11 19 2 42 7 52 11 9 4 28 5 41 3 24 -5 24 -3 20 46 -9 119 -68 335 -115 429
-11 20 -17 37 -15 37 5 0 -70 133 -116 205 -49 78 -147 191 -249 289 -57 55
-106 100 -109 100 -3 0 -41 23 -85 52 -74 48 -192 114 -203 114 -2 0 2 -8 9
-19z"/>
<path d="M3517 2769 c-9 -6 -23 -7 -30 -3 -6 4 -9 4 -5 -1 4 -4 -30 -30 -76
-57 -46 -27 -106 -67 -134 -89 -29 -21 -52 -37 -52 -35 0 2 -33 -30 -74 -70
-40 -40 -77 -70 -82 -66 -5 4 -6 3 -2 -2 4 -5 -19 -38 -50 -75 -32 -36 -71
-84 -87 -106 -16 -22 -34 -43 -39 -47 -6 -4 -7 -8 -3 -8 5 0 -1 -13 -12 -29
-38 -53 -119 -225 -150 -319 -35 -105 -73 -283 -69 -320 3 -23 10 -26 88 -42
47 -10 101 -22 120 -27 l36 -10 58 173 c33 95 62 171 67 169 4 -3 5 3 2 13 -2
11 1 25 9 33 7 8 14 22 16 31 11 65 177 411 278 578 76 126 158 242 167 235 4
-3 5 -2 2 2 -3 3 7 22 21 40 28 37 29 47 1 32z"/>
<path d="M828 1566 c-1 -2 -48 -7 -103 -10 -54 -4 -122 -12 -150 -17 -27 -5
-66 -12 -85 -15 -50 -8 -52 -11 -34 -52 9 -20 17 -42 17 -49 0 -7 4 -10 9 -7
4 3 8 1 8 -5 0 -16 133 -236 155 -256 6 -5 25 -30 43 -55 17 -25 44 -59 60
-77 16 -17 45 -50 66 -73 l38 -42 77 74 c121 116 202 178 351 270 109 66 220
120 237 114 8 -3 11 -1 8 4 -3 6 -1 10 4 10 6 0 11 5 11 10 0 9 -26 24 -60 35
-3 1 -18 7 -35 15 -144 61 -336 107 -491 116 -55 3 -104 7 -111 9 -6 2 -13 2
-15 1z"/>
<path d="M3710 1558 c0 -5 -3 -7 -7 -6 -5 1 -41 -1 -82 -6 -105 -11 -258 -51
-370 -98 -53 -22 -104 -40 -113 -41 -26 -2 -22 -16 7 -27 48 -18 190 -91 254
-131 34 -21 67 -39 71 -39 5 0 10 -4 12 -8 2 -5 28 -26 58 -46 61 -42 146
-114 230 -194 l55 -54 53 59 c114 125 225 283 306 435 l57 107 -35 7 c-20 3
-36 10 -36 16 0 5 -4 6 -10 3 -15 -9 -169 18 -163 29 4 5 1 6 -8 0 -8 -5 -39
-7 -69 -5 -112 6 -210 6 -210 -1z"/>
<path d="M2075 1394 c-146 -20 -149 -21 -165 -27 -8 -3 -24 -7 -34 -9 -16 -2
-9 -12 35 -47 30 -25 91 -82 137 -127 46 -46 85 -78 87 -71 23 77 75 272 75
283 0 16 -4 16 -135 -2z"/>
<path d="M2462 1393 c28 -98 81 -279 83 -281 1 -1 40 35 86 81 46 46 106 101
133 122 l48 39 -27 8 c-36 9 -193 35 -269 43 -54 6 -58 5 -54 -12z"/>
<path d="M2291 1203 c-42 -153 -87 -355 -96 -433 -3 -25 -13 -113 -23 -195
l-18 -151 55 -24 c92 -41 235 -32 294 18 13 12 16 25 12 61 -20 186 -29 250
-46 350 -11 63 -17 121 -15 128 3 8 2 12 -2 9 -7 -4 -36 104 -37 139 0 6 -3
15 -6 20 -4 6 -9 24 -13 40 -13 56 -48 170 -56 178 -4 5 -26 -58 -49 -140z"/>
<path d="M1610 1265 c-30 -13 -58 -21 -62 -18 -5 2 -8 0 -8 -5 0 -6 -17 -17
-37 -26 -71 -29 -237 -130 -302 -182 -9 -7 -41 -33 -73 -57 -31 -25 -59 -43
-62 -40 -3 4 -6 1 -6 -6 0 -7 -25 -35 -56 -63 l-55 -51 42 -36 c63 -54 189
-147 218 -163 14 -7 32 -19 39 -25 7 -7 18 -13 23 -13 6 0 7 -5 3 -12 -4 -6
-3 -8 3 -5 6 4 42 -10 79 -31 38 -21 84 -44 101 -51 18 -7 31 -17 28 -21 -3
-5 3 -6 13 -3 11 2 26 -3 36 -12 9 -9 16 -14 16 -11 0 3 31 -6 70 -20 64 -24
71 -25 85 -10 9 9 14 16 11 16 -4 0 6 13 20 30 15 16 48 65 75 109 l48 81 -19
67 c-27 96 -115 465 -115 483 0 8 -3 17 -6 20 -3 3 -10 21 -15 40 -5 19 -16
36 -24 37 -8 1 -40 -9 -70 -22z"/>
<path d="M2980 1286 c0 -3 -18 -71 -39 -153 -21 -81 -47 -184 -56 -228 -15
-68 -45 -187 -62 -246 -6 -21 22 -74 94 -179 50 -72 63 -85 83 -82 52 5 257
96 370 162 19 12 46 28 60 36 50 29 150 97 177 120 12 11 44 37 70 59 l49 39
-77 74 c-42 40 -101 91 -130 113 -30 22 -53 45 -51 51 1 5 -1 7 -6 4 -10 -6
-95 48 -87 56 3 2 -1 5 -7 5 -7 0 -37 14 -67 32 -53 32 -179 93 -255 125 -37
15 -66 21 -66 12z"/>
<path d="M2800 1175 c-7 -9 -15 -13 -17 -11 -5 5 -71 -64 -153 -159 -39 -47
-50 -66 -46 -85 3 -14 15 -96 28 -182 12 -87 26 -158 29 -158 8 0 47 90 66
149 7 24 29 116 49 205 20 88 39 165 42 171 3 5 7 16 8 25 1 8 5 25 8 38 6 26
3 27 -14 7z"/>
<path d="M1864 1164 c4 -10 23 -86 42 -169 54 -238 71 -299 102 -367 l29 -63
6 35 c4 19 17 105 29 190 21 138 21 157 8 171 -8 9 -52 57 -98 107 -86 95
-132 132 -118 96z"/>
<path d="M1905 458 c-10 -18 -30 -51 -42 -72 -13 -21 -22 -40 -21 -41 7 -5
175 -35 196 -35 12 0 22 -4 22 -9 0 -5 8 -7 18 -4 16 4 6 18 -52 77 -39 39
-78 82 -86 94 l-15 23 -20 -33z"/>
<path d="M2705 432 c-22 -30 -62 -73 -90 -95 l-50 -40 55 9 c30 5 70 8 88 9
17 0 32 3 32 6 0 4 20 10 45 13 50 8 62 18 40 36 -8 7 -15 18 -15 25 0 8 -4
15 -8 17 -5 2 -19 19 -33 39 l-24 36 -40 -55z"/>
<path d="M2555 280 c3 -5 8 -10 11 -10 2 0 4 5 4 10 0 6 -5 10 -11 10 -5 0 -7
-4 -4 -10z"/>
</g>
</svg>
